<svg width="300" height="300" viewBox="0 0 300 300" fill="none" xmlns="http://www.w3.org/2000/svg">
<path d="M23.1666 150.3C23.1469 129.377 28.3092 108.773 38.195 90.3165C48.0809 71.8601 62.3845 56.1226 79.8363 44.5012C97.2879 32.8798 117.348 25.734 138.235 23.6982C159.121 21.6623 180.19 24.7995 199.569 32.831V121.441H154.081V161.018H199.579V221.429H239.286V28.6582C232.241 23.5708 224.768 19.0979 216.953 15.2891L215.739 14.7388C214.133 13.9782 212.51 13.241 210.871 12.5273C209.536 11.9469 208.201 11.4065 206.856 10.8661C205.802 10.4458 204.748 10.0256 203.674 9.63528C202.6 9.24501 201.255 8.67463 199.97 8.20431L199.569 8.06422C174.428 -0.492378 147.466 -2.27746 121.411 2.88954C95.3558 8.05654 71.1315 19.9923 51.1886 37.4895C31.2456 54.9867 16.2915 77.4247 7.83894 102.533C-0.613668 127.642 -2.26492 154.531 3.05222 180.481L23.2871 154.974C23.2369 153.423 23.1666 151.872 23.1666 150.3Z" fill="#FF5A35"/>
<path d="M255.31 42.8571V78.8931C264.637 92.845 271.107 108.5 274.348 124.956C277.587 141.412 277.534 158.346 274.19 174.782C270.846 191.218 264.277 206.832 254.861 220.724C245.447 234.617 233.37 246.515 219.328 255.734C205.286 264.953 189.556 271.309 173.042 274.439C156.529 277.568 139.557 277.408 123.106 273.969C106.655 270.528 91.0469 263.877 77.1819 254.395C63.3169 244.914 51.4681 232.791 42.3172 218.722L100.687 145.519V221.005H140.376V72.1063H107.961L7.14285 199.233C10.0769 207.567 13.75 215.624 18.1185 223.307L18.0483 223.397C18.6302 224.398 19.2923 225.399 19.9043 226.46C20.6267 227.661 21.339 228.873 22.0914 230.054C23.2351 231.856 24.429 233.607 25.643 235.349C26.1747 236.12 26.6462 236.931 27.198 237.691V237.641C39.3876 254.498 54.949 268.648 72.8989 279.199C90.8487 289.749 110.797 296.471 131.482 298.938C152.168 301.405 173.143 299.563 193.078 293.531C213.015 287.498 231.48 277.406 247.309 263.891C263.136 250.375 275.983 233.73 285.035 215.01C294.088 196.288 299.15 175.897 299.902 155.125C300.654 134.352 297.08 113.65 289.404 94.3259C281.729 75.002 270.119 57.4765 255.31 42.8571Z" fill="#1E212A"/>
</svg>
