<svg width="300" height="300" viewBox="0 0 300 300" fill="none" xmlns="http://www.w3.org/2000/svg">
<rect width="300" height="300" rx="32" fill="black"/>
<path d="M52.9621 182.263C48.1601 182.263 43.9856 181.309 40.4386 179.401C36.8917 177.438 34.136 174.794 32.1715 171.468C30.207 168.088 29.2248 164.244 29.2248 159.937C29.2248 156.612 29.7705 153.559 30.8619 150.778C31.9532 147.998 33.4812 145.599 35.4456 143.582C37.4101 141.51 39.7292 139.929 42.4031 138.839C45.1315 137.694 48.1055 137.121 51.325 137.121C54.3809 137.121 57.164 137.667 59.674 138.757C62.2388 139.847 64.4488 141.374 66.3041 143.337C68.1593 145.299 69.5782 147.616 70.5604 150.288C71.5426 152.959 71.9793 155.876 71.8701 159.038L71.7882 162.554H37.1645L35.2819 155.194H61.1474L59.7559 156.748V155.113C59.6466 153.749 59.2103 152.55 58.4462 151.514C57.7369 150.424 56.7818 149.579 55.5814 148.979C54.3809 148.379 53.0166 148.08 51.4887 148.08C49.3606 148.08 47.5325 148.516 46.0046 149.388C44.5313 150.206 43.4126 151.433 42.6486 153.068C41.8847 154.649 41.5027 156.612 41.5027 158.956C41.5027 161.355 41.9938 163.454 42.9761 165.253C44.0128 166.997 45.4862 168.361 47.3961 169.342C49.3606 170.323 51.6797 170.814 54.3536 170.814C56.2088 170.814 57.8459 170.541 59.2648 169.996C60.7381 169.451 62.3207 168.524 64.0122 167.216L70.1512 175.884C68.4596 177.356 66.6589 178.555 64.7489 179.482C62.8389 180.409 60.8744 181.091 58.8555 181.527C56.891 182.017 54.9266 182.263 52.9621 182.263Z" fill="white"/>
<path d="M72.4584 181.445V138.021H84.9L85.3092 145.872L83.5903 145.953C84.2452 144.536 85.0637 143.282 86.0459 142.192C87.0826 141.101 88.2286 140.202 89.4837 139.493C90.7934 138.73 92.1304 138.157 93.4945 137.776C94.9134 137.394 96.332 137.203 97.7508 137.203C99.879 137.203 101.816 137.53 103.562 138.184C105.309 138.839 106.836 139.902 108.146 141.374C109.456 142.791 110.492 144.727 111.257 147.18L109.21 147.017L109.865 145.708C110.574 144.4 111.475 143.227 112.566 142.192C113.712 141.101 114.967 140.202 116.331 139.493C117.696 138.73 119.114 138.157 120.588 137.776C122.061 137.394 123.48 137.203 124.844 137.203C128.282 137.203 131.147 137.885 133.439 139.248C135.73 140.556 137.449 142.546 138.595 145.217C139.796 147.889 140.396 151.133 140.396 154.949V181.445H127.218V156.012C127.218 154.267 126.972 152.823 126.481 151.678C125.99 150.533 125.253 149.688 124.271 149.143C123.343 148.543 122.17 148.243 120.751 148.243C119.605 148.243 118.541 148.434 117.559 148.816C116.631 149.197 115.813 149.715 115.104 150.369C114.449 151.024 113.93 151.787 113.548 152.659C113.167 153.531 112.975 154.513 112.975 155.603V181.445H99.7972V155.93C99.7972 154.295 99.5516 152.905 99.0605 151.76C98.5694 150.615 97.8327 149.742 96.8505 149.143C95.8682 148.543 94.7223 148.243 93.4127 148.243C92.2667 148.243 91.2026 148.434 90.2204 148.816C89.2927 149.197 88.4741 149.715 87.7648 150.369C87.11 151.024 86.5915 151.787 86.2096 152.659C85.8277 153.531 85.6367 154.485 85.6367 155.521V181.445H72.4584Z" fill="white"/>
<path d="M143.52 181.445V138.021H155.961L156.371 145.872L154.652 145.953C155.307 144.536 156.125 143.282 157.107 142.192C158.144 141.101 159.29 140.202 160.545 139.493C161.855 138.73 163.192 138.157 164.556 137.776C165.975 137.394 167.394 137.203 168.812 137.203C170.94 137.203 172.878 137.53 174.624 138.184C176.37 138.839 177.898 139.902 179.208 141.374C180.517 142.791 181.554 144.727 182.318 147.18L180.272 147.017L180.926 145.708C181.636 144.4 182.536 143.227 183.628 142.192C184.773 141.101 186.029 140.202 187.393 139.493C188.757 138.73 190.176 138.157 191.649 137.776C193.122 137.394 194.541 137.203 195.905 137.203C199.343 137.203 202.208 137.885 204.5 139.248C206.792 140.556 208.511 142.546 209.657 145.217C210.857 147.889 211.457 151.133 211.457 154.949V181.445H198.279V156.012C198.279 154.267 198.034 152.823 197.542 151.678C197.051 150.533 196.315 149.688 195.332 149.143C194.405 148.543 193.232 148.243 191.813 148.243C190.667 148.243 189.603 148.434 188.621 148.816C187.693 149.197 186.875 149.715 186.165 150.369C185.51 151.024 184.992 151.787 184.61 152.659C184.228 153.531 184.037 154.513 184.037 155.603V181.445H170.859V155.93C170.859 154.295 170.613 152.905 170.122 151.76C169.631 150.615 168.894 149.742 167.912 149.143C166.93 148.543 165.784 148.243 164.474 148.243C163.328 148.243 162.264 148.434 161.282 148.816C160.354 149.197 159.536 149.715 158.826 150.369C158.171 151.024 157.653 151.787 157.271 152.659C156.889 153.531 156.698 154.485 156.698 155.521V181.445H143.52Z" fill="white"/>
<path d="M228.005 181.445L209.834 138.021H224.322L235.126 170.487L231.934 170.814L243.066 138.021H257.39L238.319 181.445H228.005Z" fill="white"/>
<path d="M257.285 181.445V138.021H270.382V181.445H257.285ZM263.834 129.434C261.378 129.434 259.441 128.862 258.022 127.717C256.658 126.517 255.976 124.827 255.976 122.647C255.976 120.684 256.685 119.076 258.104 117.822C259.523 116.568 261.433 120.488 263.834 120.488C266.289 120.488 268.199 116.541 269.563 117.74C270.928 118.885 271.61 120.52 271.61 122.647C271.61 124.664 270.9 126.299 269.482 127.553C268.117 128.807 266.235 129.434 263.834 129.434Z" fill="white"/>
</svg>
