<svg width="300" height="300" viewBox="0 0 300 300" fill="none" xmlns="http://www.w3.org/2000/svg">
<path d="M271.429 150C271.429 82.9369 217.063 28.5714 150 28.5714C82.9369 28.5714 28.5714 82.9369 28.5714 150C28.5714 217.063 82.9369 271.429 150 271.429C217.063 271.429 271.429 217.063 271.429 150ZM300 150C300 232.843 232.843 300 150 300C67.1573 300 0 232.843 0 150C0 67.1573 67.1573 0 150 0C232.843 0 300 67.1573 300 150Z" fill="#CC0202"/>
<path d="M172.261 53.7315C178.9 53.7586 186.031 54.07 192.401 54.9638C198.682 55.8453 204.567 57.3343 208.459 59.921C212.331 62.4957 216.357 67.6538 220.131 73.5462C223.964 79.5305 227.744 86.6076 231.073 93.3472C234.407 100.096 237.312 106.554 239.379 111.321C240.411 113.703 241.238 115.667 241.806 117.036C242.09 117.72 242.308 118.261 242.457 118.626C242.531 118.808 242.591 118.95 242.629 119.045C242.648 119.09 242.661 119.128 242.671 119.152C242.675 119.162 242.68 119.18 242.68 119.18L242.685 119.189L242.69 119.203L242.704 119.231C242.71 119.248 242.72 119.272 242.731 119.301C242.754 119.361 242.784 119.449 242.825 119.557C242.906 119.774 243.021 120.087 243.155 120.472C243.422 121.246 243.778 122.333 244.117 123.579C244.778 126 245.467 129.314 245.229 132.177C244.826 136.991 244.354 141.893 239.593 145.738C237.15 147.709 233.53 148.338 230.971 148.565C230.194 148.634 229.46 148.66 228.809 148.677C228.873 149.374 228.954 150.193 229.032 151.109C229.295 154.211 229.616 158.452 229.827 162.981C230.038 167.503 230.145 172.353 229.985 176.667C229.828 180.894 229.402 184.904 228.423 187.567C226.687 192.28 224.789 195.897 221.982 199.095C219.194 202.271 215.62 204.91 210.747 207.833C209.153 208.789 206.921 209.382 204.506 209.786C202.027 210.201 199.09 210.454 195.912 210.59C189.553 210.864 182.03 210.681 174.86 210.321C167.681 209.96 160.808 209.418 155.734 208.968C153.394 208.76 151.434 208.571 150 208.428V263.228L147.345 262.916H147.326C147.314 262.914 147.293 262.914 147.27 262.911C147.225 262.906 147.158 262.894 147.07 262.883C146.894 262.862 146.635 262.832 146.303 262.791C145.639 262.707 144.676 262.58 143.485 262.418C141.103 262.093 137.796 261.615 134.091 260.995C126.725 259.763 117.619 257.952 111.114 255.657C104.641 253.372 97.3643 249.728 91.7643 246.696C88.9524 245.173 86.5386 243.787 84.8262 242.785C83.97 242.283 83.2862 241.877 82.8172 241.594C82.5833 241.453 82.401 241.344 82.2776 241.269C82.2167 241.231 82.1705 241.2 82.1381 241.18C82.1238 241.172 82.101 241.162 82.101 241.162L82.0872 241.152L80.9524 240.455V139.125H145.238V54.9734L147.396 54.7686H147.433C147.457 54.7662 147.49 54.7586 147.535 54.7548C147.625 54.7462 147.758 54.7372 147.93 54.7219C148.276 54.6919 148.781 54.6472 149.428 54.5967C150.722 54.4948 152.582 54.3624 154.855 54.2291C159.399 53.9629 165.612 53.7043 172.261 53.7315ZM188.095 81.9819C174.946 81.9819 164.287 92.6429 164.286 105.791C164.286 118.941 174.946 129.601 188.095 129.601C201.245 129.601 211.905 118.941 211.905 105.791C211.904 92.6429 201.244 81.9819 188.095 81.9819Z" fill="black"/>
<path d="M129.286 75.4762H80.2381V124.524H129.286V75.4762Z" fill="#CC0202" stroke="#CC0202" stroke-width="0.3"/>
</svg>
